<svg version="1.1" xmlns="http://www.w3.org/2000/svg" xmlns:xlink="http://www.w3.org/1999/xlink" viewBox="0 0 226 226"><g fill="none" fill-rule="nonzero" stroke="none" stroke-width="1" stroke-linecap="butt" stroke-linejoin="miter" stroke-miterlimit="10" stroke-dasharray="" stroke-dashoffset="0" font-family="none" font-weight="none" font-size="none" text-anchor="none" style="mix-blend-mode: normal"><path d="M0,226v-226h226v226z" fill="none"></path><g fill="#ffffff"><path d="M200.58383,27.0582c-2.20146,0.09658 -4.34433,0.70929 -6.2768,1.48313c-1.91272,0.76866 -12.92448,5.46869 -29.18578,12.42117c-16.2613,6.95248 -37.39978,16.00608 -58.35391,24.98359c-41.90826,17.95503 -83.09031,35.62148 -83.09031,35.62148l0.30016,-0.11477c0,0 -2.48555,0.83082 -5.00555,2.58664c-1.26,0.87791 -2.61556,2.0113 -3.72547,3.66367c-1.10991,1.65238 -1.92133,3.99416 -1.61555,6.47102c1.07406,8.69985 10.09055,11.16758 10.09055,11.16758l0.03531,0.01766l40.23859,13.77188c1.02592,3.42247 12.20452,40.73276 14.66352,48.63414c1.35805,4.36844 2.62914,6.88839 3.955,8.60742c0.66349,0.86025 1.35879,1.52597 2.12758,2.01281c0.30546,0.19341 0.62671,0.33855 0.94461,0.46789c0.00678,0.00301 0.01088,-0.00299 0.01766,0c0.03906,0.01723 0.0758,0.01878 0.11476,0.03531l-0.10594,-0.02648c0.07386,0.02983 0.14676,0.08004 0.2207,0.10594c0.14345,0.05028 0.23136,0.04853 0.41492,0.08828c4.60833,1.60903 8.42203,-1.37719 8.42203,-1.37719l0.15891,-0.12359l24.71875,-22.92664l40.115,31.27805l0.5032,0.22953c7.02161,3.11766 13.3716,1.3783 16.8882,-1.48313c3.51661,-2.86143 4.89961,-6.55047 4.89961,-6.55047l0.15008,-0.38844l29.47711,-153.63586c0.75426,-3.43717 0.86143,-6.40823 0.15008,-9.09297c-0.71134,-2.68473 -2.43963,-5.01855 -4.60828,-6.31211c-2.16865,-1.29356 -4.43729,-1.71213 -6.63875,-1.61555zM200.82219,36.24828c0.89407,-0.04141 1.55675,0.0608 1.76562,0.18539c0.20887,0.12459 0.30266,0.10819 0.50321,0.86516c0.20055,0.75696 0.30915,2.35134 -0.23836,4.84664l-0.01766,0.05297l-29.30937,152.74422c-0.06938,0.15377 -0.68014,1.56674 -2.07461,2.70141c-1.42257,1.15753 -3.00475,2.06108 -7.20375,0.30016l-43.86696,-34.20899l-1.23594,-0.97109l-0.02648,0.02648l-13.11859,-9.84336l73.72367,-86.73633c1.15727,-1.35802 1.40747,-3.26971 0.63867,-4.87981c-0.76881,-1.6101 -2.41277,-2.61735 -4.1964,-2.57113c-0.85315,0.02216 -1.68261,0.28538 -2.39242,0.75922l-106.67906,71.11937l-40.30039,-13.79836c0,0 -4.00181,-2.22692 -4.19336,-3.77844c-0.01062,-0.08597 -0.05787,-0.00815 0.15008,-0.31781c0.20795,-0.30957 0.73066,-0.83229 1.38602,-1.28891c1.3107,-0.91324 2.80734,-1.46547 2.80734,-1.46547l0.15008,-0.05297l0.15008,-0.0618c0,0 41.18421,-17.66738 83.09031,-35.62149c20.95305,-8.97705 42.0878,-18.02401 58.34508,-24.97476c16.25309,-6.94897 27.99715,-11.95078 28.99156,-12.35055c1.1321,-0.45334 2.25757,-0.63836 3.15164,-0.67977zM151.93203,84.94422l-55.90851,65.77836l-0.02649,0.02648c-0.08729,0.10509 -0.16977,0.21408 -0.24719,0.32664c-0.08869,0.12233 -0.17119,0.24902 -0.24719,0.37961c-0.31411,0.53312 -0.51543,1.12506 -0.59148,1.73914c-0.00005,0.01177 -0.00005,0.02354 0,0.03531l-7.2832,32.75234c-0.12109,-0.35386 -0.20587,-0.48332 -0.33547,-0.90047v-0.00883c-2.31328,-7.43297 -12.86002,-42.62004 -14.31922,-47.48648zM102.33563,161.50172l10.04641,7.53922l-14.76063,13.68359z"></path></g></g></svg>
